<svg width="163" height="237" viewBox="0 0 163 237" fill="none" xmlns="http://www.w3.org/2000/svg">
<path d="M72.0916 27.5093L76.2035 27.5093L82.504 34.0371L78.3258 34.0371L72.0916 27.5093Z" fill="white" fill-opacity="0.53"/>
<path d="M64.2654 27.5093L68.3773 27.5093L74.6779 34.0371L70.4996 34.0371L64.2654 27.5093Z" fill="white" fill-opacity="0.53"/>
<path d="M56.4396 27.5093L60.6178 27.5093L66.8521 34.0371L62.6738 34.0371L56.4396 27.5093Z" fill="white" fill-opacity="0.53"/>
<path d="M48.6134 27.5093L52.7916 27.5093L59.0259 34.0371L54.9139 34.0371L48.6134 27.5093Z" fill="white" fill-opacity="0.53"/>
<path d="M40.7876 27.5093L44.9658 27.5093L51.2001 34.0371L47.0881 34.0371L40.7876 27.5093Z" fill="white" fill-opacity="0.53"/>
<path d="M32.9615 27.5093L37.1397 27.5093L43.3739 34.0371L39.262 34.0371L32.9615 27.5093Z" fill="white" fill-opacity="0.53"/>
<path d="M25.202 27.5093L29.3139 27.5093L35.5481 34.0371L31.4362 34.0371L25.202 27.5093Z" fill="white" fill-opacity="0.53"/>
<path d="M17.376 27.5093L21.4879 27.5093L27.7885 34.0371L23.6102 34.0371L17.376 27.5093Z" fill="white" fill-opacity="0.53"/>
<path d="M16.5805 94.5195L160.697 94.5195L197.97 131.955L280.54 131.955L320.001 171.588L375.247 171.588C375.446 171.588 375.579 171.721 375.579 171.921C375.579 172.121 375.446 172.254 375.247 172.254L319.736 172.254L280.275 132.621L197.705 132.621L160.432 95.1856L16.5805 95.1856C16.3816 95.1856 16.2489 95.0524 16.2489 94.8526C16.2489 94.6527 16.3816 94.5195 16.5805 94.5195Z" fill="#CAAA25" fill-opacity="0.72"/>
<path d="M309.987 129.823L474.199 129.823C474.398 129.823 474.531 129.957 474.531 130.156C474.531 130.356 474.398 130.489 474.199 130.489L310.319 130.489L263.429 177.583L203.01 177.583L168.125 142.546L131.715 142.546L42.048 232.603C41.9154 232.736 41.7164 232.736 41.5838 232.603C41.4511 232.47 41.4511 232.27 41.5838 232.137L131.383 141.88L168.324 141.88L203.209 176.917L263.098 176.917L309.987 129.823Z" fill="white" fill-opacity="0.53"/>
<path d="M16.5805 23.3136L141.928 23.3136L236.9 118.7L299.641 118.7L339.699 158.932L454.501 158.932C454.899 158.932 455.164 159.199 455.164 159.599C455.164 159.998 454.899 160.265 454.501 160.265L339.168 160.265L299.11 120.032L236.37 120.032L141.398 24.6458L16.5805 24.6458C16.1826 24.6458 15.9173 24.3793 15.9173 23.9797C15.9173 23.6466 16.1826 23.3136 16.5805 23.3136Z" fill="white" fill-opacity="0.53"/>
<path d="M141.596 42.5646L247.048 42.5646L322.787 118.634L429.299 118.634C429.498 118.634 429.631 118.767 429.631 118.967C429.631 119.167 429.498 119.3 429.299 119.3L322.521 119.3L246.782 43.2307L141.862 43.2307L68.2448 117.168L0.331604 117.168C0.13263 117.168 1.97991e-07 117.035 2.15461e-07 116.835C2.32931e-07 116.635 0.13263 116.502 0.331604 116.502L67.9795 116.502L141.596 42.5646Z" fill="white" fill-opacity="0.53"/>
<path d="M365.299 144.079L405.092 144.079C405.291 144.079 405.423 144.212 405.423 144.412C405.423 144.612 405.291 144.745 405.092 144.745L365.564 144.745L323.782 186.709L253.017 186.709L224.167 157.734L155.126 157.734L78.8564 234.269C78.7238 234.402 78.5248 234.402 78.3922 234.269C78.2595 234.136 78.2595 233.936 78.3922 233.803L154.795 157.068L224.366 157.068L253.216 186.043L323.516 186.043L365.299 144.079Z" fill="#CAAA25" fill-opacity="0.72"/>
<path d="M123.424 4.39623L172.104 4.39624L252.751 85.4611L354.356 85.4611L378.364 109.574L477.714 109.574C477.913 109.574 478.045 109.707 478.045 109.907C478.045 110.107 477.913 110.24 477.714 110.24L378.099 110.24L354.091 86.1272L252.486 86.1272L171.773 5.06234L123.623 5.06234L73.2191 55.6863L16.4479 55.6863C16.2489 55.6863 16.1163 55.553 16.1163 55.3532C16.1163 55.1534 16.2489 55.0202 16.4479 55.0202L72.8874 55.0202L123.424 4.39623Z" fill="white" fill-opacity="0.53"/>
<path d="M106.844 118.3L153.203 118.3C153.601 118.3 153.866 118.567 153.866 118.966C153.866 119.366 153.601 119.632 153.203 119.632L107.375 119.632L68.2449 158.933L47.8842 158.933C47.4863 158.933 47.221 158.666 47.221 158.267C47.221 157.867 47.4863 157.6 47.8842 157.6L67.7143 157.6L106.844 118.3Z" fill="white" fill-opacity="0.53"/>
<path d="M123.557 0.000296181C126.143 0.000296407 128.266 2.13183 128.266 4.72964C128.266 7.32745 126.143 9.45898 123.557 9.45898C120.97 9.45898 118.848 7.32745 118.848 4.72964C118.848 2.13183 120.97 0.000295955 123.557 0.000296181ZM123.557 8.79288C125.812 8.79288 127.602 6.99439 127.602 4.72964C127.602 2.46489 125.812 0.666401 123.557 0.6664C121.302 0.6664 119.511 2.46489 119.511 4.72964C119.511 6.99439 121.302 8.79288 123.557 8.79288Z" fill="#CAAA25" fill-opacity="0.72"/>
<path d="M123.557 1.66578C121.872 1.66578 120.506 3.03762 120.506 4.72986C120.506 6.42211 121.872 7.79394 123.557 7.79395C125.242 7.79395 126.608 6.42211 126.608 4.72986C126.608 3.03762 125.242 1.66578 123.557 1.66578Z" fill="#CAAA25" fill-opacity="0.72"/>
<path d="M160.697 90.1234C163.284 90.1234 165.406 92.2549 165.406 94.8527C165.406 97.4505 163.284 99.582 160.697 99.582C158.111 99.582 155.988 97.4505 155.988 94.8527C155.988 92.2549 158.111 90.1234 160.697 90.1234ZM160.697 98.9159C162.952 98.9159 164.743 97.1175 164.743 94.8527C164.743 92.5879 162.952 90.7895 160.697 90.7895C158.442 90.7895 156.651 92.5879 156.651 94.8527C156.651 97.0508 158.442 98.9159 160.697 98.9159Z" fill="#CAAA25" fill-opacity="0.72"/>
<path d="M160.697 91.7888C159.012 91.7888 157.646 93.1607 157.646 94.8529C157.646 96.5452 159.012 97.917 160.697 97.917C162.382 97.917 163.748 96.5452 163.748 94.8529C163.748 93.1607 162.382 91.7888 160.697 91.7888Z" fill="#CAAA25" fill-opacity="0.72"/>
<path d="M157.978 114.237C160.565 114.237 162.687 116.368 162.687 118.966C162.687 121.564 160.565 123.695 157.978 123.695C155.392 123.695 153.269 121.564 153.269 118.966C153.269 116.368 155.392 114.237 157.978 114.237ZM157.978 123.029C160.233 123.029 162.024 121.231 162.024 118.966C162.024 116.701 160.233 114.903 157.978 114.903C155.723 114.903 153.932 116.701 153.932 118.966C153.932 121.231 155.789 123.029 157.978 123.029Z" fill="#CAAA25" fill-opacity="0.72"/>
<path d="M157.978 115.902C156.293 115.902 154.927 117.274 154.927 118.966C154.927 120.658 156.293 122.03 157.978 122.03C159.663 122.03 161.029 120.658 161.029 118.966C161.029 117.274 159.663 115.902 157.978 115.902Z" fill="#CAAA25" fill-opacity="0.72"/>
<path d="M49.0779 67.0759C47.393 67.0759 46.0271 68.4478 46.0271 70.14C46.0271 71.8323 47.393 73.2041 49.0779 73.2041C50.7628 73.2041 52.1287 71.8323 52.1287 70.14C52.1287 68.4478 50.7628 67.0759 49.0779 67.0759Z" fill="#CAAA25" fill-opacity="0.72"/>
<path d="M47.533 158.009C47.44 160.068 49.0258 161.812 51.0749 161.905C53.1241 161.998 54.8606 160.406 54.9535 158.348C55.0465 156.289 53.4607 154.545 51.4115 154.452C49.3624 154.359 47.6259 155.951 47.533 158.009Z" fill="#CAAA25" fill-opacity="0.72"/>
<path d="M86.4171 94.8538C86.4171 92.7889 88.0751 91.1236 90.1311 91.1236C92.187 91.1236 93.8451 92.7889 93.8451 94.8538C93.8451 96.9187 92.187 98.584 90.1311 98.584C88.0751 98.584 86.4171 96.9187 86.4171 94.8538Z" fill="#CAAA25" fill-opacity="0.72"/>
<path d="M102.135 23.9797C102.135 22.6475 103.196 21.5152 104.589 21.5152C105.916 21.5152 107.043 22.5809 107.043 23.9797C107.043 25.312 105.982 26.4443 104.589 26.4443C103.196 26.4443 102.135 25.3786 102.135 23.9797Z" fill="#CAAA25" fill-opacity="0.72"/>
<path d="M141.198 156.601C141.198 155.136 142.392 154.004 143.785 154.004C145.244 154.004 146.372 155.203 146.372 156.601C146.372 158 145.178 159.199 143.785 159.199C142.392 159.199 141.198 158 141.198 156.601Z" fill="#CAAA25" fill-opacity="0.72"/>
<path d="M131.913 151.939C131.913 150.407 133.174 149.141 134.699 149.141C136.224 149.141 137.484 150.407 137.484 151.939C137.484 153.471 136.224 154.736 134.699 154.736C133.107 154.67 131.913 153.471 131.913 151.939Z" fill="white" fill-opacity="0.53"/>
<path d="M160.631 38.0346C157.957 38.0346 155.789 40.2117 155.789 42.8972C155.789 45.5827 157.957 47.7598 160.631 47.7598C163.305 47.7598 165.472 45.5827 165.472 42.8972C165.472 40.2117 163.305 38.0346 160.631 38.0346Z" fill="#CAAA25" fill-opacity="0.72"/>
<path d="M143.255 157C143.321 157 143.454 157 143.52 157.067C143.653 157.2 143.653 157.4 143.52 157.533L66.2554 235.134C66.1227 235.268 65.9238 235.268 65.7911 235.134C65.6585 235.001 65.6585 234.801 65.7911 234.668L143.056 157.067C143.122 157 143.188 157 143.255 157Z" fill="#CAAA25" fill-opacity="0.72"/>
<path d="M133.705 152.671C133.771 152.671 133.904 152.671 133.97 152.738C134.103 152.871 134.103 153.071 133.97 153.204L56.639 230.805C56.5063 230.939 56.3074 230.939 56.1748 230.805C56.0421 230.672 56.0421 230.472 56.1748 230.339L133.439 152.738C133.506 152.671 133.572 152.671 133.705 152.671Z" fill="white" fill-opacity="0.53"/>
<path d="M50.2721 69.8072L161.493 69.8072L210.24 118.766C210.372 118.899 210.372 119.099 210.24 119.232C210.107 119.365 209.908 119.365 209.775 119.232L161.228 70.4733L50.2058 70.4733C50.0068 70.4733 49.8742 70.34 49.8742 70.1402C49.9405 69.9404 50.0731 69.8072 50.2721 69.8072Z" fill="#CAAA25" fill-opacity="0.72"/>
<path d="M117.057 215.019L109.364 215.019L97.7579 227.075L105.451 227.075L117.057 215.019Z" fill="#CAAA25" fill-opacity="0.72"/>
<path d="M131.516 215.019L123.822 215.019L112.216 227.075L119.909 227.075L131.516 215.019Z" fill="#CAAA25" fill-opacity="0.72"/>
<path d="M146.04 215.019L138.347 215.019L126.74 227.075L134.434 227.075L146.04 215.019Z" fill="#CAAA25" fill-opacity="0.72"/>
<path d="M160.498 215.019L152.805 215.019L141.199 227.075L148.892 227.075L160.498 215.019Z" fill="#CAAA25" fill-opacity="0.72"/>
<path d="M175.023 215.019L167.329 215.019L155.723 227.075L163.416 227.075L175.023 215.019Z" fill="#CAAA25" fill-opacity="0.72"/>
<path d="M167.728 181.781L163.815 181.781L158.377 186.91L164.478 192.639L168.391 192.639L162.29 186.91L167.728 181.781Z" fill="#CAAA25" fill-opacity="0.72"/>
<path d="M161.626 181.781L157.779 181.781L152.275 186.91L158.376 192.639L162.289 192.639L156.188 186.91L161.626 181.781Z" fill="#CAAA25" fill-opacity="0.72"/>
<path d="M155.591 181.781L151.678 181.781L146.173 186.91L152.341 192.639L156.188 192.639L150.086 186.91L155.591 181.781Z" fill="#CAAA25" fill-opacity="0.72"/>
<path d="M149.489 181.781L145.576 181.781L140.071 186.91L146.239 192.639L150.152 192.639L143.984 186.91L149.489 181.781Z" fill="#CAAA25" fill-opacity="0.72"/>
<path d="M143.388 181.781L139.475 181.781L134.036 186.91L140.138 192.639L144.051 192.639L137.883 186.91L143.388 181.781Z" fill="#CAAA25" fill-opacity="0.72"/>
</svg>
