<svg width="1480" height="766" viewBox="0 0 1480 766" fill="none" xmlns="http://www.w3.org/2000/svg">
<path d="M12 604.744V613.881L21.0993 614.704L317.401 641.5C367.718 646.05 415.305 666.402 453.351 699.643C494.938 735.977 548.288 756 603.511 756H844.821C903.184 756 959.822 736.209 1005.48 699.861C1047.53 666.388 1098.52 646.051 1152.06 641.394L1458.87 614.707L1468 613.912V604.744V46V36H1458H22H12V46V604.744Z" fill="#E5E2F1" stroke="#E5E2F1" stroke-width="20"/>
<path d="M306.346 631.625L0 604.744V0H1480V604.744L1162.89 631.508C1106.22 636.29 1052.15 657.323 1007.14 692.082C961.884 727.038 906.312 746 849.127 746H598.175C544.421 746 492.411 726.922 451.407 692.162C410.478 657.466 359.797 636.315 306.346 631.625Z" fill="url(#paint0_linear_1_2)"/>
<defs>
<linearGradient id="paint0_linear_1_2" x1="740" y1="46" x2="740" y2="746" gradientUnits="userSpaceOnUse">
<stop stop-color="#183882"/>
<stop offset="1" stop-color="#001649"/>
</linearGradient>
</defs>
</svg>
