<svg width="560" height="246" viewBox="0 0 560 246" fill="none" xmlns="http://www.w3.org/2000/svg">
<path d="M485.475 28.6762L481.224 28.6762L474.711 35.4243L479.03 35.4243L485.475 28.6762Z" fill="#203871" fill-opacity="0.53"/>
<path d="M493.565 28.6762L489.314 28.6762L482.801 35.4243L487.12 35.4243L493.565 28.6762Z" fill="#203871" fill-opacity="0.53"/>
<path d="M501.655 28.6762L497.336 28.6762L490.891 35.4243L495.211 35.4243L501.655 28.6762Z" fill="#203871" fill-opacity="0.53"/>
<path d="M509.745 28.6762L505.426 28.6762L498.981 35.4243L503.232 35.4243L509.745 28.6762Z" fill="#203871" fill-opacity="0.53"/>
<path d="M517.835 28.6762L513.516 28.6762L507.072 35.4243L511.322 35.4243L517.835 28.6762Z" fill="#203871" fill-opacity="0.53"/>
<path d="M525.926 28.6762L521.606 28.6762L515.162 35.4243L519.412 35.4243L525.926 28.6762Z" fill="#203871" fill-opacity="0.53"/>
<path d="M533.947 28.6762L529.696 28.6762L523.252 35.4243L527.502 35.4243L533.947 28.6762Z" fill="#203871" fill-opacity="0.53"/>
<path d="M542.037 28.6762L537.787 28.6762L531.273 35.4243L535.593 35.4243L542.037 28.6762Z" fill="#203871" fill-opacity="0.53"/>
<path d="M542.86 97.9483L393.879 97.9483L355.348 136.647L269.99 136.647L229.197 177.618L172.086 177.618C171.881 177.618 171.743 177.756 171.743 177.962C171.743 178.169 171.881 178.307 172.086 178.307L229.471 178.307L270.264 137.336L355.622 137.336L394.153 98.6369L542.86 98.6369C543.066 98.6369 543.203 98.4992 543.203 98.2926C543.203 98.086 543.066 97.9483 542.86 97.9483Z" fill="#CAAA25" fill-opacity="0.72"/>
<path d="M239.55 134.443L69.7945 134.443C69.5888 134.443 69.4517 134.581 69.4517 134.788C69.4517 134.994 69.5888 135.132 69.7945 135.132L239.207 135.132L287.679 183.815L350.137 183.815L386.2 147.595L423.839 147.595L516.533 240.693C516.67 240.83 516.876 240.83 517.013 240.693C517.15 240.555 517.15 240.348 517.013 240.211L424.182 146.907L385.994 146.907L349.932 183.127L288.022 183.127L239.55 134.443Z" fill="#203871" fill-opacity="0.53"/>
<path d="M542.86 24.3377L413.281 24.3377L315.103 122.944L250.245 122.944L208.835 164.534L90.1568 164.534C89.7454 164.534 89.4712 164.81 89.4712 165.223C89.4712 165.636 89.7454 165.912 90.1568 165.912L209.383 165.912L250.793 124.321L315.651 124.321L413.83 25.7149L542.86 25.7149C543.271 25.7149 543.546 25.4395 543.546 25.0263C543.546 24.682 543.271 24.3377 542.86 24.3377Z" fill="#203871" fill-opacity="0.53"/>
<path d="M413.624 44.2385L304.613 44.2385L226.317 122.875L116.21 122.875C116.004 122.875 115.867 123.013 115.867 123.22C115.867 123.426 116.004 123.564 116.21 123.564L226.592 123.564L304.888 44.9271L413.35 44.9271L489.452 121.361L559.657 121.361C559.863 121.361 560 121.223 560 121.016C560 120.81 559.863 120.672 559.657 120.672L489.726 120.672L413.624 44.2385Z" fill="#203871" fill-opacity="0.53"/>
<path d="M182.37 149.179L141.234 149.179C141.028 149.179 140.891 149.317 140.891 149.524C140.891 149.73 141.028 149.868 141.234 149.868L182.096 149.868L225.289 193.249L298.443 193.249L328.266 163.295L399.638 163.295L478.482 242.414C478.619 242.552 478.825 242.552 478.962 242.414C479.099 242.277 479.099 242.07 478.962 241.932L399.98 162.607L328.061 162.607L298.237 192.56L225.563 192.56L182.37 149.179Z" fill="#CAAA25" fill-opacity="0.72"/>
<path d="M432.409 4.78195L382.086 4.78195L298.717 88.5832L193.683 88.5832L168.864 113.51L66.1607 113.51C65.955 113.51 65.8179 113.648 65.8179 113.854C65.8179 114.061 65.955 114.199 66.1607 114.199L169.138 114.199L193.957 89.2718L298.991 89.2718L382.429 5.47053L432.204 5.47054L484.31 57.8033L542.997 57.8033C543.203 57.8033 543.34 57.6656 543.34 57.459C543.34 57.2525 543.203 57.1147 542.997 57.1147L484.652 57.1147L432.409 4.78195Z" fill="#203871" fill-opacity="0.53"/>
<path d="M172.909 189.668L118.952 189.668C118.541 189.668 118.266 189.944 118.266 190.357C118.266 190.77 118.541 191.045 118.952 191.045L172.36 191.045L203.007 221.825L320.039 221.825L343.144 245.031C343.418 245.306 343.83 245.306 344.104 245.031C344.378 244.755 344.378 244.342 344.104 244.067L320.588 220.448L203.555 220.448L172.909 189.668Z" fill="#203871" fill-opacity="0.53"/>
<path d="M6.30768 69.3028C6.102 69.3028 5.96487 69.3717 5.82775 69.5094C5.55351 69.7848 5.55351 70.198 5.82775 70.4734L42.9188 107.726L160.02 107.726L192.312 75.2935L250.793 75.2935C251.205 75.2935 251.479 75.0181 251.479 74.605C251.479 74.1918 251.205 73.9164 250.793 73.9164L191.763 73.9164L159.403 106.349L43.4673 106.349L6.7876 69.5094C6.65048 69.3717 6.4448 69.3028 6.30768 69.3028Z" fill="#203871" fill-opacity="0.53"/>
<path d="M151.518 177.618L100.989 177.618L73.1539 205.575L6.30764 205.575C6.10196 205.575 5.96484 205.712 5.96484 205.919C5.96484 206.125 6.10196 206.263 6.30764 206.263L73.4967 206.263L101.332 178.306L151.587 178.306C151.792 178.306 151.93 178.169 151.93 177.962C151.93 177.756 151.724 177.618 151.518 177.618Z" fill="#203871" fill-opacity="0.53"/>
<path d="M118.952 149.179L81.7924 149.179L45.524 185.605L0.342801 185.605C0.137121 185.605 4.81587e-08 185.743 3.00992e-08 185.95C1.20397e-08 186.156 0.13712 186.294 0.342801 186.294L45.7982 186.294L82.0666 149.868L118.952 149.868C119.158 149.868 119.295 149.73 119.295 149.523C119.295 149.317 119.158 149.179 118.952 149.179Z" fill="#203871" fill-opacity="0.53"/>
<path d="M70.2057 134.512C70.1371 134.512 70 134.512 69.9314 134.581L38.188 166.532L0.342801 166.532C0.137121 166.532 4.81587e-08 166.669 3.00992e-08 166.876C1.20397e-08 167.082 0.13712 167.22 0.342801 167.22L38.4623 167.22L70.4113 135.132C70.5485 134.994 70.5485 134.788 70.4113 134.65C70.3428 134.512 70.2742 134.512 70.2057 134.512Z" fill="#203871" fill-opacity="0.53"/>
<path d="M449.549 122.531L401.626 122.531C401.214 122.531 400.94 122.806 400.94 123.219C400.94 123.632 401.214 123.908 401.626 123.908L449.001 123.908L489.451 164.535L510.499 164.535C510.911 164.535 511.185 164.259 511.185 163.846C511.185 163.433 510.911 163.157 510.499 163.157L490 163.157L449.549 122.531Z" fill="#203871" fill-opacity="0.53"/>
<path d="M432.272 0.237164C429.598 0.237164 427.405 2.44065 427.405 5.12615C427.405 7.81165 429.598 10.0151 432.272 10.0151C434.946 10.0151 437.14 7.81165 437.14 5.12615C437.14 2.44065 434.946 0.237164 432.272 0.237164ZM432.272 9.32655C429.941 9.32655 428.09 7.46735 428.09 5.12615C428.09 2.78495 429.941 0.925753 432.272 0.925753C434.603 0.925753 436.454 2.78495 436.454 5.12615C436.454 7.46735 434.603 9.32655 432.272 9.32655Z" fill="#CAAA25" fill-opacity="0.72"/>
<path d="M432.272 1.95892C434.014 1.95892 435.426 3.37706 435.426 5.12643C435.426 6.8758 434.014 8.29395 432.272 8.29395C430.531 8.29395 429.119 6.8758 429.119 5.12643C429.119 3.37706 430.531 1.95892 432.272 1.95892Z" fill="#CAAA25" fill-opacity="0.72"/>
<path d="M393.879 93.4037C391.205 93.4037 389.011 95.6072 389.011 98.2927C389.011 100.978 391.205 103.182 393.879 103.182C396.552 103.182 398.746 100.978 398.746 98.2927C398.746 95.6072 396.552 93.4037 393.879 93.4037ZM393.879 102.493C391.547 102.493 389.696 100.634 389.696 98.2927C389.696 95.9515 391.547 94.0923 393.879 94.0923C396.21 94.0923 398.061 95.9515 398.061 98.2927C398.061 100.565 396.21 102.493 393.879 102.493Z" fill="#CAAA25" fill-opacity="0.72"/>
<path d="M393.879 95.1249C395.62 95.1249 397.032 96.5431 397.032 98.2925C397.032 100.042 395.62 101.46 393.879 101.46C392.137 101.46 390.725 100.042 390.725 98.2925C390.725 96.5431 392.137 95.1249 393.879 95.1249Z" fill="#CAAA25" fill-opacity="0.72"/>
<path d="M396.689 118.33C394.015 118.33 391.822 120.534 391.822 123.219C391.822 125.905 394.015 128.108 396.689 128.108C399.363 128.108 401.557 125.905 401.557 123.219C401.557 120.534 399.363 118.33 396.689 118.33ZM396.689 127.42C394.358 127.42 392.507 125.561 392.507 123.219C392.507 120.878 394.358 119.019 396.689 119.019C399.02 119.019 400.871 120.878 400.871 123.219C400.871 125.561 398.952 127.42 396.689 127.42Z" fill="#CAAA25" fill-opacity="0.72"/>
<path d="M396.689 120.052C398.431 120.052 399.843 121.47 399.843 123.219C399.843 124.969 398.431 126.387 396.689 126.387C394.948 126.387 393.536 124.969 393.536 123.219C393.536 121.47 394.948 120.052 396.689 120.052Z" fill="#CAAA25" fill-opacity="0.72"/>
<path d="M346.092 123.219C346.092 121.498 344.652 120.052 342.938 120.052C341.224 120.052 339.784 121.498 339.784 123.219C339.784 124.941 341.224 126.387 342.938 126.387C344.652 126.387 346.092 124.941 346.092 123.219Z" fill="#CAAA25" fill-opacity="0.72"/>
<path d="M509.265 69.5781C511.007 69.5781 512.419 70.9962 512.419 72.7456C512.419 74.4949 511.007 75.9131 509.265 75.9131C507.524 75.9131 506.112 74.4949 506.112 72.7456C506.112 70.9962 507.524 69.5781 509.265 69.5781Z" fill="#CAAA25" fill-opacity="0.72"/>
<path d="M307.561 178.169C304.887 178.169 302.693 180.372 302.693 183.058C302.693 185.743 304.887 187.947 307.561 187.947C310.235 187.947 312.429 185.743 312.429 183.058C312.429 180.372 310.235 178.169 307.561 178.169ZM307.561 187.258C305.23 187.258 303.379 185.399 303.379 183.058C303.379 180.717 305.23 178.857 307.561 178.857C309.892 178.857 311.743 180.717 311.743 183.058C311.743 185.399 309.824 187.258 307.561 187.258Z" fill="#CAAA25" fill-opacity="0.72"/>
<path d="M307.561 179.891C309.303 179.891 310.715 181.309 310.715 183.058C310.715 184.807 309.303 186.226 307.561 186.226C305.819 186.226 304.407 184.807 304.407 183.058C304.407 181.309 305.819 179.891 307.561 179.891Z" fill="#CAAA25" fill-opacity="0.72"/>
<path d="M255.593 69.6468C252.919 69.6468 250.725 71.8503 250.725 74.5358C250.725 77.2213 252.919 79.4248 255.593 79.4248C258.266 79.4248 260.46 77.2213 260.46 74.5358C260.46 71.7815 258.266 69.6468 255.593 69.6468ZM255.593 78.6674C253.262 78.6674 251.41 76.8082 251.41 74.467C251.41 72.1258 253.262 70.2666 255.593 70.2666C257.924 70.2666 259.775 72.1258 259.775 74.467C259.775 76.8082 257.924 78.6674 255.593 78.6674Z" fill="#203871" fill-opacity="0.53"/>
<path d="M255.593 71.2993C257.334 71.2993 258.746 72.7174 258.746 74.4668C258.746 76.2161 257.334 77.6343 255.593 77.6343C253.851 77.6343 252.439 76.2161 252.439 74.4668C252.439 72.7174 253.851 71.2993 255.593 71.2993Z" fill="#203871" fill-opacity="0.53"/>
<path d="M167.561 173.073C164.887 173.073 162.693 175.277 162.693 177.962C162.693 180.648 164.887 182.851 167.561 182.851C170.235 182.851 172.429 180.648 172.429 177.962C172.429 175.277 170.235 173.073 167.561 173.073ZM167.561 182.162C165.23 182.162 163.379 180.303 163.379 177.962C163.379 175.621 165.23 173.762 167.561 173.762C169.892 173.762 171.743 175.621 171.743 177.962C171.743 180.303 169.892 182.162 167.561 182.162Z" fill="#CAAA25" fill-opacity="0.72"/>
<path d="M167.561 174.794C169.303 174.794 170.715 176.213 170.715 177.962C170.715 179.711 169.303 181.129 167.561 181.129C165.819 181.129 164.407 179.711 164.407 177.962C164.407 176.213 165.819 174.794 167.561 174.794Z" fill="#CAAA25" fill-opacity="0.72"/>
<path d="M115.387 186.914C113.536 186.914 111.959 188.429 111.959 190.357C111.959 192.285 113.467 193.8 115.387 193.8C117.238 193.8 118.815 192.285 118.815 190.357C118.815 188.429 117.306 186.914 115.387 186.914ZM115.387 193.111C113.878 193.111 112.644 191.872 112.644 190.357C112.644 188.842 113.878 187.603 115.387 187.603C116.895 187.603 118.129 188.842 118.129 190.357C118.129 191.872 116.895 193.111 115.387 193.111Z" fill="#203871" fill-opacity="0.53"/>
<path d="M117.581 190.357C117.581 189.186 116.621 188.222 115.455 188.222C114.29 188.222 113.33 189.186 113.33 190.357C113.33 191.528 114.29 192.492 115.455 192.492C116.621 192.492 117.581 191.528 117.581 190.357Z" fill="#203871" fill-opacity="0.53"/>
<path d="M45.6612 182.507C43.81 182.507 42.2332 184.022 42.2332 185.95C42.2332 187.878 43.7415 189.393 45.6612 189.393C47.5809 189.393 49.0892 187.878 49.0892 185.95C49.0892 184.022 47.5123 182.507 45.6612 182.507ZM45.6612 188.704C44.1528 188.704 42.9188 187.465 42.9188 185.95C42.9188 184.435 44.1528 183.195 45.6612 183.195C47.1695 183.195 48.4036 184.435 48.4036 185.95C48.4036 187.465 47.1695 188.704 45.6612 188.704Z" fill="#203871" fill-opacity="0.53"/>
<path d="M47.7864 185.95C47.7864 184.779 46.8265 183.815 45.661 183.815C44.4955 183.815 43.5356 184.779 43.5356 185.95C43.5356 187.12 44.4955 188.084 45.661 188.084C46.8265 188.084 47.7864 187.12 47.7864 185.95Z" fill="#203871" fill-opacity="0.53"/>
<path d="M112.919 119.776C111.068 119.776 109.491 121.291 109.491 123.219C109.491 125.147 110.999 126.662 112.919 126.662C114.77 126.662 116.347 125.147 116.347 123.219C116.347 121.291 114.838 119.776 112.919 119.776ZM112.919 125.974C111.41 125.974 110.176 124.734 110.176 123.219C110.176 121.704 111.41 120.465 112.919 120.465C114.427 120.465 115.661 121.704 115.661 123.219C115.661 124.734 114.427 125.974 112.919 125.974Z" fill="#203871" fill-opacity="0.53"/>
<path d="M115.113 123.219C115.113 122.048 114.153 121.084 112.987 121.084C111.822 121.084 110.862 122.048 110.862 123.219C110.862 124.389 111.822 125.354 112.987 125.354C114.153 125.354 115.113 124.389 115.113 123.219Z" fill="#203871" fill-opacity="0.53"/>
<path d="M63.0755 110.411C61.2243 110.411 59.6475 111.926 59.6475 113.854C59.6475 115.714 61.1558 117.297 63.0755 117.297C64.9266 117.297 66.5035 115.782 66.5035 113.854C66.5035 111.926 64.9952 110.411 63.0755 110.411ZM63.0755 116.54C61.5671 116.54 60.3331 115.3 60.3331 113.786C60.3331 112.271 61.5671 111.031 63.0755 111.031C64.5838 111.031 65.8179 112.271 65.8179 113.786C65.8179 115.369 64.5838 116.54 63.0755 116.54Z" fill="#203871" fill-opacity="0.53"/>
<path d="M65.2695 113.854C65.2695 112.684 64.3097 111.72 63.1442 111.72C61.9786 111.72 61.0188 112.684 61.0188 113.854C61.0188 115.025 61.9786 115.989 63.1442 115.989C64.3097 115.989 65.2695 115.025 65.2695 113.854Z" fill="#203871" fill-opacity="0.53"/>
<path d="M210.617 174.106C212.737 174.106 214.456 175.833 214.456 177.962C214.456 180.092 212.737 181.818 210.617 181.818C208.497 181.818 206.778 180.092 206.778 177.962C206.778 175.833 208.497 174.106 210.617 174.106Z" fill="#CAAA25" fill-opacity="0.72"/>
<path d="M510.863 163.581C510.959 165.708 509.319 167.511 507.201 167.608C505.083 167.704 503.288 166.058 503.192 163.93C503.096 161.803 504.735 160 506.853 159.903C508.972 159.807 510.767 161.453 510.863 163.581Z" fill="#CAAA25" fill-opacity="0.72"/>
<path d="M470.666 98.2923C470.666 96.1577 468.952 94.4362 466.827 94.4362C464.701 94.4362 462.987 96.1577 462.987 98.2923C462.987 100.427 464.701 102.148 466.827 102.148C468.952 102.148 470.666 100.427 470.666 98.2923Z" fill="#CAAA25" fill-opacity="0.72"/>
<path d="M454.417 25.0264C454.417 23.6493 453.32 22.4787 451.88 22.4787C450.509 22.4787 449.344 23.5804 449.344 25.0264C449.344 26.4036 450.441 27.5742 451.88 27.5742C453.32 27.5742 454.417 26.4725 454.417 25.0264Z" fill="#CAAA25" fill-opacity="0.72"/>
<path d="M345.406 44.5826C345.406 43.2054 344.31 42.0348 342.87 42.0348C341.499 42.0348 340.333 43.1365 340.333 44.5826C340.333 45.9598 341.43 47.1304 342.87 47.1304C344.31 47.1304 345.406 45.9598 345.406 44.5826Z" fill="#CAAA25" fill-opacity="0.72"/>
<path d="M370.568 159.026C372.689 159.026 374.407 160.753 374.407 162.882C374.407 165.012 372.689 166.738 370.568 166.738C368.448 166.738 366.729 165.012 366.729 162.882C366.729 160.753 368.448 159.026 370.568 159.026Z" fill="#CAAA25" fill-opacity="0.72"/>
<path d="M414.035 162.125C414.035 160.61 412.801 159.439 411.361 159.439C409.853 159.439 408.688 160.679 408.688 162.125C408.688 163.571 409.922 164.81 411.361 164.81C412.801 164.81 414.035 163.571 414.035 162.125Z" fill="#CAAA25" fill-opacity="0.72"/>
<path d="M423.634 157.305C423.634 155.721 422.331 154.413 420.754 154.413C419.177 154.413 417.875 155.721 417.875 157.305C417.875 158.888 419.177 160.197 420.754 160.197C422.4 160.128 423.634 158.888 423.634 157.305Z" fill="#203871" fill-opacity="0.53"/>
<path d="M260.872 83.8319C263.636 83.8319 265.876 86.0824 265.876 88.8586C265.876 91.6347 263.636 93.8853 260.872 93.8853C258.107 93.8853 255.867 91.6347 255.867 88.8586C255.867 86.0824 258.107 83.8319 260.872 83.8319Z" fill="#203871" fill-opacity="0.53"/>
<path d="M393.947 39.5555C396.711 39.5555 398.952 41.806 398.952 44.5822C398.952 47.3583 396.711 49.6089 393.947 49.6089C391.183 49.6089 388.942 47.3583 388.942 44.5822C388.942 41.806 391.183 39.5555 393.947 39.5555Z" fill="#CAAA25" fill-opacity="0.72"/>
<path d="M241.675 134.788C241.675 133.479 240.646 132.446 239.344 132.446C238.041 132.446 237.013 133.479 237.013 134.788C237.013 136.096 238.041 137.129 239.344 137.129C240.646 137.129 241.675 136.096 241.675 134.788Z" fill="#CAAA25" fill-opacity="0.72"/>
<path d="M161.802 107.037C161.802 105.729 160.774 104.696 159.471 104.696C158.169 104.696 157.14 105.729 157.14 107.037C157.14 108.346 158.169 109.378 159.471 109.378C160.774 109.378 161.802 108.346 161.802 107.037Z" fill="#203871" fill-opacity="0.53"/>
<path d="M255.867 146.08C252.987 146.08 250.656 148.422 250.656 151.314C250.656 154.206 252.987 156.547 255.867 156.547C258.746 156.547 261.077 154.206 261.077 151.314C261.077 148.422 258.746 146.08 255.867 146.08ZM255.867 155.858C253.399 155.858 251.342 153.793 251.342 151.314C251.342 148.835 253.399 146.769 255.867 146.769C258.335 146.769 260.392 148.835 260.392 151.314C260.392 153.793 258.335 155.858 255.867 155.858Z" fill="#CAAA25" fill-opacity="0.72"/>
<path d="M259.226 151.313C259.226 149.454 257.718 147.939 255.867 147.939C254.016 147.939 252.507 149.454 252.507 151.313C252.507 153.173 254.016 154.688 255.867 154.688C257.718 154.688 259.226 153.173 259.226 151.313Z" fill="#CAAA25" fill-opacity="0.72"/>
<path d="M141.234 145.667C143.355 145.667 145.074 147.394 145.074 149.523C145.074 151.653 143.355 153.379 141.234 153.379C139.114 153.379 137.395 151.653 137.395 149.523C137.395 147.394 139.114 145.667 141.234 145.667Z" fill="#203871" fill-opacity="0.53"/>
<path d="M118.952 145.667C121.072 145.667 122.791 147.394 122.791 149.523C122.791 151.653 121.072 153.379 118.952 153.379C116.831 153.379 115.113 151.653 115.113 149.523C115.113 147.394 116.831 145.667 118.952 145.667Z" fill="#203871" fill-opacity="0.53"/>
<path d="M70.2056 131C72.326 131 74.045 132.727 74.045 134.856C74.045 136.986 72.326 138.712 70.2056 138.712C68.0852 138.712 66.3662 136.986 66.3662 134.856C66.3662 132.727 68.0852 131 70.2056 131Z" fill="#203871" fill-opacity="0.53"/>
<path d="M41.6846 166.876C41.6846 164.741 39.9706 163.02 37.8452 163.02C35.7199 163.02 34.0059 164.741 34.0059 166.876C34.0059 169.01 35.7199 170.732 37.8452 170.732C39.9706 170.663 41.6846 168.942 41.6846 166.876Z" fill="#203871" fill-opacity="0.53"/>
<path d="M198.002 163.708C198.835 163.708 199.51 164.387 199.51 165.223C199.51 166.06 198.835 166.738 198.002 166.738C197.169 166.738 196.494 166.06 196.494 165.223C196.494 164.387 197.169 163.708 198.002 163.708Z" fill="#CAAA25" fill-opacity="0.72"/>
<path d="M229.265 175.345C230.704 175.345 231.871 176.517 231.871 177.962C231.871 179.407 230.704 180.579 229.265 180.579C227.827 180.579 226.66 179.407 226.66 177.962C226.66 176.517 227.827 175.345 229.265 175.345Z" fill="#CAAA25" fill-opacity="0.72"/>
<path d="M153.506 175.345C154.945 175.345 156.112 176.517 156.112 177.962C156.112 179.407 154.945 180.579 153.506 180.579C152.068 180.579 150.901 179.407 150.901 177.962C150.901 176.517 152.068 175.345 153.506 175.345Z" fill="#203871" fill-opacity="0.53"/>
<path d="M90.1568 162.607C91.5957 162.607 92.7621 163.778 92.7621 165.223C92.7621 166.668 91.5957 167.84 90.1568 167.84C88.7179 167.84 87.5515 166.668 87.5515 165.223C87.5515 163.778 88.7179 162.607 90.1568 162.607Z" fill="#203871" fill-opacity="0.53"/>
<path d="M378.315 205.575L163.036 205.575C162.83 205.575 162.693 205.712 162.693 205.919C162.693 206.125 162.83 206.263 163.036 206.263L378.315 206.263C378.521 206.263 378.658 206.125 378.658 205.919C378.658 205.712 378.521 205.575 378.315 205.575Z" fill="#CAAA25" fill-opacity="0.72"/>
<path d="M161.117 203.302C162.555 203.302 163.722 204.474 163.722 205.919C163.722 207.364 162.555 208.536 161.117 208.536C159.678 208.536 158.511 207.364 158.511 205.919C158.511 204.474 159.678 203.302 161.117 203.302Z" fill="#CAAA25" fill-opacity="0.72"/>
<path d="M378.315 203.302C379.754 203.302 380.921 204.474 380.921 205.919C380.921 207.364 379.754 208.536 378.315 208.536C376.876 208.536 375.71 207.364 375.71 205.919C375.71 204.474 376.876 203.302 378.315 203.302Z" fill="#CAAA25" fill-opacity="0.72"/>
<path d="M411.91 162.538C411.841 162.538 411.704 162.538 411.636 162.607C411.499 162.744 411.499 162.951 411.636 163.089L491.508 243.309C491.645 243.447 491.851 243.447 491.988 243.309C492.125 243.172 492.125 242.965 491.988 242.827L412.116 162.607C412.047 162.538 411.978 162.538 411.91 162.538Z" fill="#CAAA25" fill-opacity="0.72"/>
<path d="M421.783 158.062C421.714 158.062 421.577 158.062 421.508 158.131C421.371 158.268 421.371 158.475 421.508 158.613L501.45 238.833C501.587 238.971 501.792 238.971 501.929 238.833C502.067 238.696 502.067 238.489 501.929 238.351L422.057 158.131C421.988 158.062 421.92 158.062 421.783 158.062Z" fill="#203871" fill-opacity="0.53"/>
<path d="M508.031 72.4016L393.056 72.4016L342.664 123.013C342.527 123.151 342.527 123.357 342.664 123.495C342.801 123.633 343.007 123.633 343.144 123.495L393.33 73.0901L508.1 73.0901C508.306 73.0901 508.443 72.9524 508.443 72.7459C508.374 72.5393 508.237 72.4016 508.031 72.4016Z" fill="#CAAA25" fill-opacity="0.72"/>
<path d="M262.654 113.304L258.335 113.304L251.89 120.052L256.209 120.052L262.654 113.304Z" fill="#CAAA25" fill-opacity="0.72"/>
<path d="M270.744 113.304L266.425 113.304L259.98 120.052L264.231 120.052L270.744 113.304Z" fill="#CAAA25" fill-opacity="0.72"/>
<path d="M278.834 113.304L274.515 113.304L268.07 120.052L272.321 120.052L278.834 113.304Z" fill="#CAAA25" fill-opacity="0.72"/>
<path d="M286.856 113.304L282.605 113.304L276.16 120.052L280.411 120.052L286.856 113.304Z" fill="#CAAA25" fill-opacity="0.72"/>
<path d="M294.946 113.304L290.695 113.304L284.182 120.052L288.501 120.052L294.946 113.304Z" fill="#CAAA25" fill-opacity="0.72"/>
<path d="M303.036 113.304L298.785 113.304L292.272 120.052L296.592 120.052L303.036 113.304Z" fill="#CAAA25" fill-opacity="0.72"/>
<path d="M311.126 113.304L306.807 113.304L300.362 120.052L304.682 120.052L311.126 113.304Z" fill="#CAAA25" fill-opacity="0.72"/>
<path d="M319.216 113.304L314.897 113.304L308.452 120.052L312.703 120.052L319.216 113.304Z" fill="#CAAA25" fill-opacity="0.72"/>
<path d="M184.153 51.2616L176.2 51.2616L164.202 63.7939L172.155 63.7939L184.153 51.2616Z" fill="#CAAA25" fill-opacity="0.72"/>
<path d="M199.167 51.2616L191.214 51.2616L179.216 63.7939L187.169 63.7939L199.167 51.2616Z" fill="#CAAA25" fill-opacity="0.72"/>
<path d="M214.113 51.2616L206.229 51.2616L194.231 63.7939L202.115 63.7939L214.113 51.2616Z" fill="#CAAA25" fill-opacity="0.72"/>
<path d="M229.128 51.2616L221.175 51.2616L209.177 63.7939L217.13 63.7939L229.128 51.2616Z" fill="#CAAA25" fill-opacity="0.72"/>
<path d="M244.143 51.2616L236.19 51.2616L224.192 63.7939L232.145 63.7939L244.143 51.2616Z" fill="#CAAA25" fill-opacity="0.72"/>
<path d="M259.089 51.2616L251.136 51.2616L239.138 63.7939L247.091 63.7939L259.089 51.2616Z" fill="#CAAA25" fill-opacity="0.72"/>
<path d="M274.104 51.2616L266.151 51.2616L254.153 63.7939L262.106 63.7939L274.104 51.2616Z" fill="#CAAA25" fill-opacity="0.72"/>
<path d="M289.05 51.2616L281.097 51.2616L269.099 63.7939L277.052 63.7939L289.05 51.2616Z" fill="#CAAA25" fill-opacity="0.72"/>
<path d="M438.991 222.514L446.944 222.514L458.942 234.978L450.989 234.978L438.991 222.514Z" fill="#CAAA25" fill-opacity="0.72"/>
<path d="M424.045 222.514L431.998 222.514L443.996 234.978L436.043 234.978L424.045 222.514Z" fill="#CAAA25" fill-opacity="0.72"/>
<path d="M409.03 222.514L416.983 222.514L428.981 234.978L421.028 234.978L409.03 222.514Z" fill="#CAAA25" fill-opacity="0.72"/>
<path d="M394.084 222.514L402.037 222.514L414.035 234.978L406.082 234.978L394.084 222.514Z" fill="#CAAA25" fill-opacity="0.72"/>
<path d="M379.07 222.514L387.023 222.514L399.021 234.978L391.068 234.978L379.07 222.514Z" fill="#CAAA25" fill-opacity="0.72"/>
<path d="M364.123 222.514L372.076 222.514L384.074 234.978L376.121 234.978L364.123 222.514Z" fill="#CAAA25" fill-opacity="0.72"/>
<path d="M349.109 222.514L357.062 222.514L369.06 234.978L361.107 234.978L349.109 222.514Z" fill="#CAAA25" fill-opacity="0.72"/>
<path d="M334.094 222.514L342.047 222.514L354.045 234.978L346.092 234.978L334.094 222.514Z" fill="#CAAA25" fill-opacity="0.72"/>
<path d="M46.0039 85.0715L50.8717 85.0715L57.7277 91.4754L50.0489 98.6367L45.1812 98.6367L52.8599 91.4754L46.0039 85.0715Z" fill="#203871" fill-opacity="0.53"/>
<path d="M53.614 85.0715L58.4818 85.0715L65.2692 91.4754L57.659 98.6367L52.7913 98.6367L60.4014 91.4754L53.614 85.0715Z" fill="#203871" fill-opacity="0.53"/>
<path d="M61.2243 85.0715L66.0921 85.0715L72.8796 91.4754L65.2694 98.6367L60.4016 98.6367L68.0118 91.4754L61.2243 85.0715Z" fill="#203871" fill-opacity="0.53"/>
<path d="M68.8344 85.0715L73.7022 85.0715L80.4897 91.4754L72.8795 98.6367L68.0117 98.6367L75.6219 91.4754L68.8344 85.0715Z" fill="#203871" fill-opacity="0.53"/>
<path d="M76.4445 85.0715L81.3123 85.0715L88.0998 91.4754L80.4896 98.6367L75.6218 98.6367L83.232 91.4754L76.4445 85.0715Z" fill="#203871" fill-opacity="0.53"/>
<path d="M84.0549 85.0715L88.9227 85.0715L95.7101 91.4754L88.1 98.6367L83.2322 98.6367L90.8424 91.4754L84.0549 85.0715Z" fill="#203871" fill-opacity="0.53"/>
<path d="M91.665 85.0715L96.5328 85.0715L103.32 91.4754L95.7101 98.6367L90.8423 98.6367L98.4525 91.4754L91.665 85.0715Z" fill="#203871" fill-opacity="0.53"/>
<path d="M99.2751 85.0715L104.143 85.0715L110.93 91.4754L103.32 98.6367L98.4524 98.6367L106.063 91.4754L99.2751 85.0715Z" fill="#203871" fill-opacity="0.53"/>
<path d="M106.817 85.0715L111.753 85.0715L118.541 91.4754L110.931 98.6367L106.063 98.6367L113.673 91.4754L106.817 85.0715Z" fill="#203871" fill-opacity="0.53"/>
<path d="M114.427 85.0715L119.295 85.0715L126.151 91.4754L118.541 98.6367L113.673 98.6367L121.283 91.4754L114.427 85.0715Z" fill="#203871" fill-opacity="0.53"/>
<path d="M122.037 85.0715L126.905 85.0715L133.761 91.4754L126.082 98.6367L121.214 98.6367L128.893 91.4754L122.037 85.0715Z" fill="#203871" fill-opacity="0.53"/>
<path d="M348.766 188.153L352.811 188.153L358.502 193.456L352.125 199.377L348.149 199.377L354.456 193.456L348.766 188.153Z" fill="#CAAA25" fill-opacity="0.72"/>
<path d="M355.074 188.153L359.119 188.153L364.809 193.456L358.433 199.377L354.388 199.377L360.764 193.456L355.074 188.153Z" fill="#CAAA25" fill-opacity="0.72"/>
<path d="M361.381 188.153L365.426 188.153L371.048 193.456L364.741 199.377L360.696 199.377L367.072 193.456L361.381 188.153Z" fill="#CAAA25" fill-opacity="0.72"/>
<path d="M367.689 188.153L371.734 188.153L377.356 193.456L371.048 199.377L367.003 199.377L373.31 193.456L367.689 188.153Z" fill="#CAAA25" fill-opacity="0.72"/>
<path d="M373.996 188.153L378.041 188.153L383.663 193.456L377.356 199.377L373.311 199.377L379.618 193.456L373.996 188.153Z" fill="#CAAA25" fill-opacity="0.72"/>
<path d="M380.304 188.153L384.349 188.153L389.971 193.456L383.663 199.377L379.618 199.377L385.926 193.456L380.304 188.153Z" fill="#CAAA25" fill-opacity="0.72"/>
<path d="M386.611 188.153L390.656 188.153L396.278 193.456L389.971 199.377L385.926 199.377L392.233 193.456L386.611 188.153Z" fill="#CAAA25" fill-opacity="0.72"/>
<path d="M392.919 188.153L396.895 188.153L402.586 193.456L396.278 199.377L392.233 199.377L398.541 193.456L392.919 188.153Z" fill="#CAAA25" fill-opacity="0.72"/>
<path d="M399.158 188.153L403.203 188.153L408.893 193.456L402.517 199.377L398.541 199.377L404.848 193.456L399.158 188.153Z" fill="#CAAA25" fill-opacity="0.72"/>
<path d="M405.465 188.153L409.51 188.153L415.201 193.456L408.825 199.377L404.78 199.377L411.156 193.456L405.465 188.153Z" fill="#CAAA25" fill-opacity="0.72"/>
<path d="M411.773 188.153L415.818 188.153L421.44 193.456L415.132 199.377L411.087 199.377L417.463 193.456L411.773 188.153Z" fill="#CAAA25" fill-opacity="0.72"/>
</svg>
