<svg width="412" height="701" viewBox="0 0 412 701" fill="none" xmlns="http://www.w3.org/2000/svg">
<path d="M4.52778 652.834V655.99L7.66966 656.291L88.8763 664.052C102.875 665.389 116.049 671.279 126.381 680.819C137.977 691.526 153.182 697.472 168.966 697.472H234.331C250.952 697.472 267.04 691.605 279.76 680.905C291.197 671.284 305.304 665.393 320.187 664.025L404.318 656.292L407.472 656.002V652.834V490V486.528H404H8H4.52778V490V652.834Z" fill="#E5E2F1" stroke="#E5E2F1" stroke-width="6.94444"/>
<path d="M84.8446 660.707L0 652.894V0H412V652.894L324.133 660.677C308.115 662.096 292.885 668.263 280.393 678.388C267.803 688.593 252.09 694.162 235.884 694.162H167.04C151.775 694.162 137.041 688.556 125.636 678.41C114.278 668.305 99.983 662.101 84.8446 660.707Z" fill="url(#paint0_linear_0_3)"/>
<defs>
<linearGradient id="paint0_linear_0_3" x1="206" y1="489.66" x2="206" y2="694.162" gradientUnits="userSpaceOnUse">
<stop stop-color="#183882"/>
<stop offset="1" stop-color="#001649"/>
</linearGradient>
</defs>
</svg>
